/* XPM */
static char *a696aca282234befad05dda5c48a87fb[] = {
/* columns rows colors chars-per-pixel */
"64 64 18 1 ",
"  c #12173D",
". c #3F1F3C",
"X c #721C2F",
"o c #723352",
"O c #A52639",
"+ c #DD3745",
"@ c #994C69",
"# c #FF6675",
"$ c #0E993C",
"% c #00C62D",
"& c #70DB00",
"* c #CC817A",
"= c #FFAA6E",
"- c #C37289",
"; c #F29FAA",
": c #FFE091",
"> c #FFCCD0",
", c white",
/* pixels */
"$$&&&&$$$&        %%%$%%$$%%%$$$$$&&&&$$$&%$$$$%    %$%%$$%%%$$$",
"%%%%&$$%$&        %%$$%$$&%%$$$$%%%%&$$%$&%%$$$$    $$%$$&%%$$$$",
"$$%&$$%%  ;;;;;;  %$$$$$&%%%%%$$$$%&$$%%$&&&$%  ;;;;  $$&%%%%%$$",
"%%%$$%%$  ;;;;;;  $$$$$&&&&%$$$%%%%$$%%$$$$$$%  ;;;;  $&&&&%$$$%",
"&$$$$$  ;;####  $%%%%$$$    $$$%&$$$$$    %$$$%%  ##;;  $$$$$$$%",
"%&$$%%  ;;####  $%%$$$$$    $%%$%&$$%%    %$$$$$  ##;;  $$$$$%%$",
"%&$$  ;;####  %%$$$$$$  ,,,,  %$%&$$  ,,,,  $$%%$$  ##;;  %%$$%$",
"%%&$  ;;####  $%$$$$&&  ,,,,  $$%%&$  ,,,,  %$$%$$  ##;;  $%$$$$",
"%$  ;;######  $$$$$&  ,,>>  $$$$%$%$$%  >>,,  $$$$  ####;;  $$$$",
"%$  ;;######  %$%$&&  ,,>>  &&%$%$%$%%  >>,,  %$%$  ####;;  &&%$",
"  ;;####++##  $$%$  ,,>>  ,,  %$$$$%  ,,  >>,,  %$  ######;;  %$",
"  ;;####++##  $$%$  ,,>>  ,,  $$$%$$  ,,  >>,,  %$  ######;;  $$",
"  ####++++##;;  $$  >>>>..  >>  %%  >>  ..>>;;..  ;;##++####;;  ",
"  ####++++##;;  %$  >>>>..  >>  $$  >>  ..>>;;..  ;;##++####;;  ",
"  ##++++++####;;  ..>>;;;;..;;......;;..;;;;;;..;;####++++####  ",
"  ##++++++####;;  ..>>;;;;..;;......;;..;;;;;;..;;####++++####  ",
"  ##++++OO######;;..;;;;----@@++####++@@--;;;;..######OO++++##  ",
"  ##++++OO######;;..;;;;----@@++####++@@--;;;;..######OO++++##  ",
"  ##++OOOO##++####....----@@++########++@@--....##++##OOOO++##  ",
"  ##++OOOO##++####....----@@++########++@@--....##++##OOOO++##  ",
"  ##++OOOO##++##++..;;....@@++##########@@..;;..##++##OOOO++##  ",
"  ##++OOOO##++##++..;;....@@++##########@@..;;..##++##OOOO++##  ",
"  ##++OOOO##OO##++..--;;@@OO++::::##::::..;;--..##OO##OOOO++##  ",
"  ##++OOOO##OO##++..--;;@@OO++::::##::::..;;--..##OO##OOOO++##  ",
"  ##++OOXX##OO##OO++..--@@XXOO++########OO--..++##OO##OOOO++##  ",
"  ##++OOXX##OO##OO++..--@@XXOO++########OO--..++##OO##OOOO++##  ",
"  ##++OOXX##OOOO##OOOO....XXXXOO++######++..XX##OOOO##XXOO++##  ",
"  ##++OOXX##OOOO##OOOO....XXXXOO++######++..XX##OOOO##XXOO++##  ",
"  ##++OOXX##XXOO##OOXXXX..XX..XXOO++######++..##OOXX##XXOO++##  ",
"  ##++OOXX##XXOO##OOXXXX..XX..XXOO++######++..##OOXX##XXOO++##  ",
"  ##++OOXX##XXXX##XXXX..##..XX..XXOOXX++XXOO..##XXXX##XXOO++##  ",
"  ##++OOXX##XXXX##XXXX..##..XX..XXOOXX++XXOO..##XXXX##XXOO++##  ",
"  ##++OOXX##XXXX##....##++++..XX..XXOOOOOOOO..##..XX##XXOO++##  ",
"  ##++OOXX##XXXX##....##++++..XX..XXOOOOOOOO..##..XX##XXOO++##  ",
"  ##++OOXX##....##..##++OOOOXX..XX..........++......##XXOO++##  ",
"  ##++OOXX##....##..##++OOOOXX..XX..........++......##XXOO++##  ",
"  ##++OO..##......##++OOOOXXXXXX..XXXXXX..XXOO++....##..OO++##  ",
"  ##++OO..##......##++OOOOXXXXXX..XXXXXX..XXOO++....##..OO++##  ",
"  ##++OO..      ..++OOOOXXXXXX@@@@......XXXXOO++..    ..OO++##  ",
"  ##++OO..      ..++OOOOXXXXXX@@@@......XXXXOO++..    ..OO++##  ",
"  ##++..  $%$$$$  ++OOOOXXXX@@========@@XXXXOOOO++  %&  ..++##  ",
"  ##++..  $$$%%$  ++OOOOXXXX@@========@@XXXXOOOO++  &$  ..++##  ",
"$$  ++  $$%%$%$$  OOOOXXXX..@@********@@..XXXXOOOO  $%%$  ++  %$",
"$%  ++  $$$%$$$$  OOOOXXXX..@@********@@..XXXXOOOO  $%$$  ++  $$",
"%%  ++  $$$$$$$$  ++XXXX..@@============@@..XXXX++  $$$$  ++  $$",
"$$  ++  $$%%$$%%  ++XXXX..@@============@@..XXXX++  %%%$  ++  $$",
"$%%$  &&&$$%    ..++OOXX..@@************@@..XXOO++  $%%%$$  $$%%",
"$$$%  $$$%%$    ..++OOXX..@@************@@..XXOO++  $$%%$%  $$&%",
"$$$$$$$$    ####..++OOXX..@@============@@..XXOO++  $$$$$%%$$$&&",
"%%$%%$%%    ####..++OOXX..@@============@@..XXOO++  %%$$$$$$%%$$",
"$%$%    ####++....++OOXX..@@************@@..XXOO++  %$$$$$$$$%$$",
"$$$$    ####++....++OOXX..@@************@@..XXOO++  $$%%$$$$$$%%",
"$%  ####++++..++..++OOXX..@@============@@..XXOO++    %$$%$$$%%%",
"$$  ####++++..++..++OOXX..@@============@@..XXOO++    $$$$%$$%%$",
"  ##++OO....++OOXX..OOXXXX..oo----------oo..XXOO..XXOO  $$%%$$$$",
"  ##++OO....++OOXX..OOXXXX..oo----------oo..XXOO..XXOO  &$%%$%%%",
"  ++####++++..XXXX..OOOOXX..oo********oo....XXOO..XXXXOO  $$$%%$",
"  ++####++++..XXXX..OOOOXX..oo********oo....XXOO..XXXXOO  %%$$$$",
"  OOOOOO######..XX..OOXXXX....oo@@@@@@oo....XXXXOO..XXXX  &&&&$$",
"  OOOOOO######..XX..OOXXXX....oo@@@@@@oo....XXXXOO..XXXX  &%%%&$",
"  XXXXOOOOOOOO##..XX..OOOOXX................OOOOXX  ..XX  $&%%%&",
"  XXXXOOOOOOOO##..XX..OOOOXX................OOOOXX  ..XX  $$%$%%",
"$$  XXXXXXXXOOOOOO  >>XX>>XX>>          ..>>XX>>XX>>  ..>>  %$$%",
"$$  XXXXXXXXOOOOOO  >>XX>>XX>>          ..>>XX>>XX>>  ..>>  $$$$"
};
