/* XPM */
static char *_ec9e5a6c6bc475ea131bc4c09674b1e[] = {
/* columns rows colors chars-per-pixel */
"64 64 167 2 ",
"   c #767E3E",
".  c #7A7B3E",
"X  c #9E5C3F",
"o  c #A1593F",
"O  c #8D6E3E",
"+  c #95673F",
"@  c #99633F",
"#  c #996C3D",
"$  c #83763E",
"%  c #94753C",
"&  c #99763E",
"*  c #9A7C39",
"=  c #A26C3E",
"-  c #A55B41",
";  c #AA5E43",
":  c #966B40",
">  c #A76242",
",  c #AD6044",
"<  c #B26A57",
"1  c #B36B5A",
"2  c #AF7168",
"3  c #B8766C",
"4  c #B87B76",
"5  c #DE5954",
"6  c #E45B56",
"7  c #E75D58",
"8  c #EB5E59",
"9  c #EF605B",
"0  c #F3615C",
"q  c #FA645F",
"w  c #DF6160",
"e  c #EA6563",
"r  c #E16A6B",
"t  c #FF6661",
"y  c #F76966",
"u  c #FF6C67",
"i  c #F26A69",
"p  c #E16E70",
"a  c #E27276",
"s  c #E3767A",
"d  c #EB7478",
"f  c #F17173",
"g  c #0E993C",
"h  c #29973C",
"j  c #34953C",
"k  c #3B943C",
"l  c #38BE2F",
"z  c #548D3D",
"x  c #44923C",
"c  c #6A853D",
"v  c #73803D",
"b  c #739E37",
"n  c #7B9838",
"m  c #4BB731",
"M  c #6AA535",
"N  c #60AC34",
"B  c #00C62D",
"V  c #19C42E",
"C  c #25C22E",
"Z  c #70DB00",
"A  c #2B9B46",
"S  c #359C4C",
"D  c #4D9F5B",
"F  c #6CA573",
"G  c #8D823B",
"H  c #819039",
"J  c #8CA82D",
"K  c #86B627",
"L  c #919777",
"P  c #FD827F",
"I  c #94DB69",
"U  c #A2DB7F",
"Y  c #E47D83",
"T  c #EF7E83",
"R  c #F07C81",
"E  c #80AA83",
"W  c #86AC88",
"Q  c #96B195",
"!  c #AFB9AB",
"~  c #B3BBAF",
"^  c #B7BCB2",
"/  c #BCBEB6",
"(  c #C28684",
")  c #C58B8B",
"_  c #C89193",
"`  c #CA969C",
"'  c #E58289",
"]  c #EA8289",
"[  c #FD8582",
"{  c #FD8C8A",
"}  c #E58890",
"|  c #E88D97",
" . c #EA929D",
".. c #FF9895",
"X. c #CE9CA4",
"o. c #D29EA6",
"O. c #EA9AA7",
"+. c #F09FAC",
"@. c #D3A0A8",
"#. c #D8A4AD",
"$. c #DAABB7",
"%. c #DDAFBC",
"&. c #CCBAB9",
"*. c #D1B7BA",
"=. c #DCB1BD",
"-. c #F5AFAD",
";. c #FFACAB",
":. c #EDA4B3",
">. c #EDA8B6",
",. c #EAABB9",
"<. c #F0A6B4",
"1. c #F0ACBD",
"2. c #F4B4B3",
"3. c #F3BBBA",
"4. c #FFBAB8",
"5. c #83CB82",
"6. c #93CC90",
"7. c #98CD95",
"8. c #ABDB8B",
"9. c #A2CE9E",
"0. c #BEDBA6",
"q. c #B4D0AE",
"w. c #B8D0B2",
"e. c #C2DBAA",
"r. c #C3C1BD",
"t. c #DDC5B6",
"y. c #C9DBB3",
"u. c #C6D2BE",
"i. c #E6B9C9",
"p. c #F3B5C6",
"a. c #F4B8CA",
"s. c #F5BDD0",
"d. c #D3C7CB",
"f. c #D5C8CD",
"g. c #C8D2C0",
"h. c #D3D4CA",
"j. c #DBDBC9",
"k. c #E4C3CE",
"l. c #FFC8C7",
"z. c #EAC0D1",
"x. c #EEC5D8",
"c. c #EDC9D9",
"v. c #F6C1D4",
"b. c #F8C6DB",
"n. c #F0C9DD",
"m. c #F8C8DD",
"M. c #ECD4D5",
"N. c #E4DBD3",
"B. c #E7D0DD",
"V. c #E8D7DE",
"C. c #EDDCDE",
"Z. c #F3DCDC",
"A. c #F4CDE2",
"S. c #FACEE4",
"D. c #ECD2E1",
"F. c #F5D2E6",
"G. c #F6D6EB",
"H. c #FCD4EB",
"J. c #FCD5EC",
"K. c #F4DAE9",
"L. c #FFDBF3",
"P. c #EBE0E0",
"I. c #E9E9E9",
"U. c #FFECEC",
"Y. c #F5F5F5",
"T. c #FFF3F3",
"R. c #FFFFFF",
/* pixels */
"g g Z Z Z Z g g g Z B g g g g B g g B B B g B B g g B B B g g g g g Z Z Z Z g g g Z B g g g g B g g B B B g B B g g B B B g g g ",
"B B B B Z g g B g Z B B g g g g g B B B g g B g g Z B B g g g g B B B B Z g g B g Z B B g g g g g B B B g g B g g Z B B g g g g ",
"g g B Z g g B B g Z Z Z g B B g g B B g g g g g Z B B B B B g g g g B Z g g B B g Z Z Z g B B g g B B g g g g g Z B B B B B g g ",
"B B B g g B B g g g g g g B B B g g g g g g g Z Z Z Z B g g g B B B B g g B B g g g g g g B B B g g g g g g g Z Z Z Z B g g g B ",
"Z g g g g g g g g B B g g g B B g B B B B g g g g g g g g g g B Z g g g g g g g g B B g g g B B g B B B B g g g g g g g g g g B ",
"B Z g g B B g g g g B g g g g g g B B g g g g g g g g g g B B g B Z g g B B g g g g B g g g g g g B B g g g g g g g g g g B B g ",
"B Z g g B g g Z Z g g g g g B B g g g g g g g B B g B B g g B g B Z g g B g g Z Z g g g g g B B g g g g g g g B B g B B g g B g ",
"B B Z g g g Z B Z g g B B g g B g g g g Z Z B B B g g B g g g Q h.h.j.d.d.d.j.h.j.d.d.h.h.d.d.g.g g g g Z Z B B B g g B g g g g ",
"B g B g g B B Z g g g B g g g g g g g Z B Z Z B B g g g g g g ^ L.L.L.L.L.L.L.L.L.L.L.L.L.L.L.F.g g g Z B Z Z B B g g g g g g g ",
"B g B g B B B g g g g g g B B g B g Z Z Z g g g g g g g Z U 6.&.v.v.v.v.v.v.v.v.v.v.v.v.v.v.v.s.6.Q 8.8.I g g g g g g g Z Z B g ",
"g g g B B g B g g g B B g B g g B g g g g B B g g g g g Z V.L.1.5 5 5 5 5 5 5 5 5 5 5 5 5 5 5 a L.L.L.L.r.B B g g g g g Z B B g ",
"g B g g B g B g g g g B g g g g B g g g g B g g g B g g B V.L.1.5 5 5 5 5 5 5 5 5 5 5 5 5 5 5 a L.L.L.L.r.B g g g B g g B B g g ",
"B B g g g g g g g g g g g g g g g g g g g g g g q.G.G.G.G.} r i t t t t t t t t t t t t t t t t r r r r >.G.G.G.G.5.g g g g g g ",
"g g g B B Z Z Z g g B B g g B B B g g g B B B g w.L.L.L.L.' 5 8 t t t t t t t t t t t t t t t t 5 5 5 5 >.L.L.L.L.5.g B g g g g ",
"g B B g B B Z Z Z g g B g B B B g g B g g B q.u.=.:.:.:.:.f 0 q t t t t t t t t t t t t t t t t 0 0 0 0 ] :.:.:.:.*.u.7.g g B B ",
"g g g B Z g g g g B B g g B B g g g B B g g V.L.1.5 5 5 5 q t t t t t t t t t t t t t t t t t t t t t t 0 5 5 5 5 b.L.r.g g Z B ",
"g g g g g g g g g B B B g g g g g g g S W W z.b.+.7 7 7 7 q t t t t t t t t t t t t t t t t t t t t t t q 7 7 7 7 p.b.&.W E Z Z ",
"B B g B B g B B g g B B g B B B B g g F L.L.Y 5 8 t t t t t t t t t t t t t t t t t t t t t t t t t t t t t t t t 7 5 :.L.K.g g ",
"g B g B g g g B g g g g g B B g g g g F L.L.Y 5 8 t t t t t t t t t t t t t t t t t t t t t t t t t t t t t t t t 7 5 :.L.K.g g ",
"g g g g B B g g g g B g g g g g g ! F.c.s s y q t t t t t t t t t t t t t t t t t t t t t t t t t t t t t t t t t 7 5 :.L.F.B B ",
"g B B g B g g g g B B g g g g g g / L.S.5 5 q t t t t t t t t t t t t t t t t t t t t t t t t t t t t t t t t t t 7 5 :.L.K.B B ",
"g g B g g B B B g B B g B g Z 0.y.t.>.:.0 0 t t t t t t t 4.l.l.l.l.l.l.P t t t t t t t t t t t t t t t t t t t t 7 5 :.L.K.B g ",
"g g g g g g B B B g g B B g g C.L.1.5 6 t t t t t t t t t U.R.R.R.R.R.R...t t t t t t t t t t t t t t t t t t t t 7 5 :.L.F.g g ",
"Z Z Z g g g g B B g B B A F F c.S.<.6 7 t t t t t t u [ [ U.R.R.R.R.R.R.;.{ { { [ t t t t t t t t t t t t t t t t 7 5 :.L.K.B B ",
"B B Z g g g g g g g B B F L.L.Y 5 9 t t t t t t t t P I.I.R.R.R.R.R.R.R.R.R.R.R.T.t t t t t t t t t t t t t t t t 7 5 :.L.K.B g ",
"g B Z g g g g g g g g g F L.L.Y 5 9 t t t t t t t t P I.I.R.R.R.R.R.R.R.R.R.R.R.T.t t t t t t t t t t t t t t t t 7 5 :.L.F.g g ",
"g g g Z Z Z Z B f.B.B.B.M.' ' y q t t t t t t t t t u { { Z.I.Y.R.R.R.R.R.R.Y.I.P.t t t t t t t t t t t t t t 7 7 a.m.H.L.K.g g ",
"g g Z B B Z g g D.L.L.L.S.5 5 q t t t t t t t t t t t t t M.I.Y.R.R.R.R.R.R.Y.I.C.t t t t t t t t t t t t t t 5 5 b.L.L.L.K.Z g ",
"g Z B B Z D ~ e.K.L.b.p.<.8 8 t t t t t t t t t t t t t t -.3.Z.Y.Y.Y.Y.Y.Y.Z.3.2.t t t t t t t t t t t q 0 i >.>.S.L.n.=.*.B Z ",
"g B g B B F L.L.L.L.1.5 6 t t t t t t t t t t t t t t t t t t 2.I.I.I.I.I.I.3.t t t t t t t t t t t t t 0 5 a L.L.L.L.=.o @ B B ",
"g g g B g F L.L.J.H.<.6 7 t t t t t t t t t t t t t t t t t t -.P.P.P.P.P.P.2.t t t t t t t t t t t t t i p ' L.L.J.F.$.o @ g B ",
"g g g g g F L.L.Y 5 9 t t t t t t t t t t t t t t t t t t t t t t t t t t t t t t t t t t t t t t t 7 5 >.L.L.L.L.) , ; o @ g g ",
"g g Z Z Z I L.L.Y 5 9 t t t t t t t t t t t t t t t t t t t t t t t t t t t t t t t t t t t t t t t 7 5 >.L.L.L.L.) , ; o @ g g ",
"B B B 9.N.k.| | i q q t t t t t t t t t t t t t t t t t t t t t t t t t t t t t t t t t t t t t 8 8 p.v.S.L.H._ _ 1 , ; o @ g g ",
"g g B y.L.S.5 5 q t t t t t t t t t t t t t t t t t t t t t t t t t t t t t t t t t t t t t t t 5 5 b.L.L.L.F., , , , ; o # g g ",
"B B B / L.S.5 5 q t t t t t t t t t t t t t t t t t t t t t t t t t t t t t t t t t t q q q q i O.O.S.L.A.i.i., , ; ; & $ . g B ",
"Z g g / L.S.5 5 q t t t t t t t t t t t t t t t t t t t t t t t t t t t t t t t t t t 7 5 5 5 a L.L.L.L.=., , , , - o . g g g B ",
"B Z g / L.S.5 5 q t t t t t t t t t t t t t t t t t t t t t t t t t t t t t t t t t t e w w w s L.L.L.L.%., , , , - X . g B B g ",
"B Z g / L.S.5 5 q t t t t t t t t t t t t t t t t t t t t t t t t t t t t t 0 5 5 5 5 m.L.L.L.F., , , , , , ; o o z B B g g B g ",
"B B Z / L.S.5 5 q t t t t t t t t t t t t t t t t t t t t t t t t t t t t t 0 5 5 5 5 m.L.L.L.F., , , , , , ; o o z g B g g g g ",
"B g B L ` X.s.s.d 8 q t t t t t t t t t t t t t t t t t t t t q 8 8 8 8 8 8  .s.s.s.s.J.L.z.` _ , , , , ; - = N N j g g g g g g ",
"B g B   o 4 L.L.Y 5 9 t t t t t t t t t t t t t t t t t t t t 0 5 5 5 5 5 5 >.L.L.L.L.L.L.=., , , , , , ; o @ g g g g g Z Z B g ",
"g g g b o 2 z.z.O. .T q q t t t t t t t t t t t q q q q q q q R  . . . . . .a.L.J.z.z.z.z.o., , ; ; ; ; : G H g g g g g Z B B g ",
"g B g   o - , , A.L.1.5 6 t t t t t t t t t t t 0 5 5 5 5 5 5 >.L.L.L.L.L.L.L.L.F., , , , , , ; o o o o . B g g g B g g B B g g ",
"B B g   o - , , A.L.1.5 6 t t t t t t t t t t t 9 5 5 5 5 5 5 >.L.L.L.L.L.L.L.L.F., , , , , , ; o o o o . g g g B B g g g g g g ",
"g g g b o - , , < 1 $.J.S.6 6 6 6 6 6 6 6 6 6 6 >.J.J.J.J.J.J.%.1 1 1 1 1 1 1 1 1 , , , , ; o # C h h h V B B g B B g B g g g g ",
"g B B   o - , , , , $.L.S.5 5 5 5 5 5 5 5 5 5 5 >.L.L.L.L.L.L.%., , , , , , , , , , , , , ; o # g g B g g B B B g g B B g g B B ",
"g g g m K   - - ; , ( @.#.p.p.p.p.p.p.p.p.p.p.p.,.@.@.@.@.@.@.( , , , , , , , , , - - - - G M c g g B B g g B B g B B g g g Z B ",
"g g g g g x o o ; , , , 4 L.L.L.L.L.L.L.L.L.L.L.%., , , , , , , , , , , , , , , ; o o o o . g g g g g g g g g g g B B g g g Z Z ",
"B B g B B k G G > ; ; , 3 x.x.x.x.x.x.x.x.x.x.x.o., , , , , , ; ; ; ; ; ; ; ; ; > O G G O M B B B g g g B B g g g g g g B B g g ",
"g B g B g g g B + o - , , , , , , , , , , , , , , , , , , , , - o o o o o o o o @ g g g g B B g g g g g B g g g g g g g g B g g ",
"g g g g B B g g + o - , , , , , , , , , , , , , , , , , , , , - o o o o o o o o @ g B g g g g g g g g g g g B B g g g g g g B B ",
"g B B g B g g g j l n - - , , , , , , , , , , , ; - - - - - - n k l l k l k k k k B B g g g g g g g g B B g B g g B g g g B B B ",
"g g B g g B B B g B b o - , , , , , , , , , , , - o o o o o o . g g B g g B B B g B B g B g Z Z Z Z g B g g g g g g B g g B B g ",
"g g g g g g B B B g z b n - - - - - - - - - - - : v b b v v v z g g g g g g B B B g g B B g g Z B Z g g g Z Z Z g g B B g g g g ",
"Z Z Z g g g g B B g B B x o o o o o o o o o o o J g B B g B B B Z Z Z g g g g B B g B B g g g g Z B Z g Z B B Z Z g B B g B B B ",
"B B Z g g g g g g g B B k + + + * % % + * % % + v g g g g B B g B B Z g g g g g g g B B g g g g Z B B g Z B B g g g g g g B B g ",
"g B Z g g g g g g g g g g g g g B g B g B g B g g g B B g g g g g B Z g g g g g g g g g g g g g B g B g B g B g g g B B g g g g ",
"g g g Z Z Z Z B g g g g Z Z Z g g g g g g g B B g Z Z Z Z Z g g g g g Z Z Z Z B g g g g Z Z Z g g g g g g g B B g Z Z Z Z Z g g ",
"g g Z B B Z g g g g g g B B Z g g g g g g g B g g g Z B B B Z g g g Z B B Z g g g g g g B B Z g g g g g g g B g g g Z B B B Z g ",
"g Z B B Z g g Z Z Z g g g B Z g g Z Z Z B g g g g g g Z B B B Z g Z B B Z g g Z Z Z g g g B Z g g Z Z Z B g g g g g g Z B B B Z ",
"g B g B B g g Z B B g g g g g g Z Z B B B B g g B B g g B g B B g B g B B g g Z B B g g g g g g Z Z B B B B g g B B g g B g B B ",
"g g g B g g g Z B g g B g g g g g g g Z B B g g g B g g B g g B g g g B g g g Z B g g B g g g g g g g Z B B g g g B g g B g g B ",
"g g g g g g g g g g g B B g B B g g g g g g g g g g g g g g g g g g g g g g g g g g g B B g B B g g g g g g g g g g g g g g g g "
};
