/* XPM */
static char *_e976c082cb947eaa14772fae8893299stQpRKxaohkQG13J[] = {
/* columns rows colors chars-per-pixel */
"64 64 197 2 ",
"   c #050506",
".  c #070807",
"X  c #080807",
"o  c #090B09",
"O  c #11120E",
"+  c #181A15",
"@  c #1F221B",
"#  c #2B2419",
"$  c #3C2A1C",
"%  c #272A22",
"&  c #362D22",
"*  c #392B24",
"=  c #2F332A",
"-  c #35382F",
";  c #3B3E33",
":  c #49321F",
">  c #4E3724",
",  c #493A2B",
"<  c #533E28",
"1  c #4C3D32",
"2  c #3E5C3B",
"3  c #0F7F31",
"4  c #177730",
"5  c #1D7632",
"6  c #127B31",
"7  c #2A6A33",
"8  c #396739",
"9  c #287536",
"0  c #347939",
"q  c #54412A",
"w  c #5B452D",
"e  c #5B482E",
"r  c #484B3E",
"t  c #554734",
"y  c #524837",
"u  c #425E3E",
"i  c #644C33",
"p  c #654B38",
"a  c #68543A",
"s  c #6E553F",
"d  c #73593F",
"f  c #43663C",
"g  c #46763D",
"h  c #52743E",
"j  c #3E7942",
"k  c #594F40",
"l  c #4F5344",
"z  c #465D40",
"x  c #4D5C44",
"c  c #515546",
"v  c #525A46",
"b  c #535748",
"n  c #555A4A",
"m  c #595E4D",
"M  c #654C40",
"N  c #675746",
"B  c #6B5445",
"V  c #745947",
"C  c #745C4A",
"Z  c #446441",
"A  c #4B6745",
"S  c #4C6B44",
"D  c #526943",
"F  c #53654A",
"G  c #5B614F",
"H  c #536A4C",
"J  c #467543",
"K  c #567C49",
"L  c #5E6351",
"P  c #597551",
"I  c #6A654C",
"U  c #766346",
"Y  c #7B634C",
"T  c #7C6B4B",
"R  c #616653",
"E  c #636A56",
"W  c #6E6954",
"Q  c #666C59",
"!  c #696E5A",
"~  c #7A6752",
"^  c #6C725D",
"/  c #68795B",
"(  c #78735D",
")  c #6E7561",
"_  c #6F7964",
"`  c #717662",
"'  c #7A7564",
"]  c #747A64",
"[  c #797D65",
"{  c #767B68",
"}  c #7A7E6B",
"|  c #836A4C",
" . c #83724F",
".. c #856C53",
"X. c #886E51",
"o. c #8C7354",
"O. c #897856",
"+. c #907758",
"@. c #947C5B",
"#. c #0C9E25",
"$. c #129A26",
"%. c #0B8332",
"&. c #0C8B36",
"*. c #1A8B38",
"=. c #0D953A",
"-. c #0E993C",
";. c #14953B",
":. c #1A963D",
">. c #13993D",
",. c #1B983E",
"<. c #25932D",
"1. c #2C8F31",
"2. c #2B8C3E",
"3. c #338032",
"4. c #3D943C",
"5. c #03A625",
"6. c #06A626",
"7. c #00AA25",
"8. c #18AC2C",
"9. c #00B629",
"0. c #18BE31",
"q. c #31A838",
"w. c #37B83E",
"e. c #5FBB02",
"r. c #57A910",
"t. c #60BD00",
"y. c #508931",
"u. c #68BC29",
"i. c #00C62D",
"p. c #0CC32E",
"a. c #17C331",
"s. c #25C136",
"d. c #69CB0D",
"f. c #6CD500",
"g. c #70DB00",
"h. c #338B42",
"j. c #269742",
"k. c #2D9542",
"l. c #379648",
"z. c #448242",
"x. c #4B8247",
"c. c #53864A",
"v. c #469945",
"b. c #4E8F51",
"n. c #5D8555",
"m. c #568B53",
"M. c #559256",
"N. c #6C875E",
"B. c #53AA4F",
"V. c #79A55B",
"C. c #7C826C",
"Z. c #689663",
"A. c #799367",
"S. c #7E8471",
"D. c #7D9978",
"F. c #76A26C",
"G. c #7CA676",
"H. c #9B825E",
"J. c #84836B",
"K. c #9D8461",
"L. c #818672",
"P. c #8B8570",
"I. c #848A75",
"U. c #878C79",
"Y. c #898E7A",
"T. c #83957A",
"R. c #8C917E",
"E. c #A38B63",
"W. c #A68F68",
"Q. c #A89068",
"!. c #898F80",
"~. c #8E9481",
"^. c #899B80",
"/. c #919684",
"(. c #939986",
"). c #969B8A",
"_. c #999E8D",
"`. c #9A9E90",
"'. c #A19C90",
"]. c #9BA08F",
"[. c #9DA292",
"{. c #9FA398",
"}. c #A0A596",
"|. c #A3A799",
" X c #A5AA9C",
".X c #A9AC9E",
"XX c #AAAEA1",
"oX c #AEB1A5",
"OX c #B0B3A7",
"+X c #B2B5AB",
"@X c #B6B8AE",
"#X c #B7BAB0",
"$X c #BABCB4",
"%X c #BDC0B7",
"&X c #BEC1B9",
"*X c #C2C4BD",
"=X c #C6C8C2",
/* pixels */
"-.-.g.g.g.g.-.-.-.g.i.-.-.-.-.i.-.-.i.i.i.-.i.i.-.-.i.i.i.-.-.-.-.-.g.g.g.g.-.-.-.g.i.-.-.-.-.i.-.-.i.i.i.-.i.i.-.-.i.i.i.-.-.-.",
"i.i.i.i.g.-.-.i.-.g.i.i.-.-.-.-.-.i.i.i.-.-.i.-.-.g.i.i.-.-.-.-.i.i.i.i.g.-.-.i.-.g.i.i.-.-.-.-.-.i.i.i.-.-.i.-.-.g.i.i.-.-.-.-.",
"-.-.i.g.-.-.i.i.-.g.g.g.-.i.i.-.-.i.i.-.-.-.-.-.g.i.i.i.i.i.-.-.-.-.i.g.-.-.i.i.-.g.g.g.-.i.i.-.-.i.i.-.-.-.-.-.g.i.i.i.i.i.-.-.",
"i.i.i.-.-.i.i.-.-.-.-.-.-.i.i.i.-.-.-.-.-.-.-.g.g.g.g.i.-.-.-.i.i.i.i.-.-.i.i.-.-.-.-.-.-.i.i.i.-.-.-.-.-.-.-.g.g.g.g.i.-.-.-.i.",
"g.-.-.-.-.-.-.-.-.i.i.-.-.-.i.i.-.i.i.i.i.-.-.-.-.-.-.-.-.-.-.i.g.-.-.-.-.-.-.-.-.i.i.-.-.-.i.i.-.i.i.i.i.-.-.-.-.-.-.-.-.-.-.i.",
"i.g.-.-.i.i.-.-.-.-.i.-.-.-.-.-.-.i.i.-.-.-.-.-.-.-.-.-.-.i.i.-.i.g.-.-.i.i.-.-.-.-.i.-.-.-.-.-.-.i.i.-.-.-.-.-.-.-.-.-.-.i.i.-.",
"i.g.-.-.i.-.-.g.g.-.-.-.-.-.i.i.-.-.-.-.-.-.-.i.i.-.i.i.-.-.i.-.i.g.-.-.i.-.-.g.g.-.-.-.-.-.i.i.-.-.-.-.-.-.-.i.i.-.i.i.-.-.i.-.",
"i.i.g.-.-.-.g.i.g.-.-.i.i.-.-.i.-.-.-.-.g.g.i.i.i.-.-.i.j.M.c.H z.4.u.,.-.-.g.i.g.-.-.i.i.-.-.i.-.-.-.-.g.g.i.i.i.-.-.i.-.-.-.-.",
"i.-.i.-.-.i.i.g.-.-.-.i.-.-.-.-.-.-.-.g.i.g.g.i.i.>.l.n./ G n R ! E G Z Z 4.a.f.-.-.-.i.-.-.-.-.-.-.-.g.i.g.g.i.i.-.-.-.-.-.-.-.",
"i.-.i.-.i.i.i.-.-.-.-.-.-.i.i.-.i.-.g.g.g.-.-.-.-.k.N.` E R C.).XX).C.Q m c y.;.-.-.-.-.-.i.i.-.i.-.g.g.g.-.-.-.-.-.-.-.g.g.i.-.",
"-.-.-.i.i.-.i.-.-.-.i.i.-.i.-.-.i.-.-.-.-.i.i.-.>.n.C.L.C.).oX#X*XoXR.J.` b c 0 >.-.i.i.-.i.-.-.i.-.-.-.-.i.i.-.-.-.-.-.g.i.i.-.",
"-.i.-.-.i.-.i.-.-.-.-.i.-.-.-.-.i.-.-.-.-.i.-.-.l.^ U.[.@X#X%X*X*XoX).R.} m c l J >.-.i.-.-.-.-.i.-.-.-.-.i.-.-.-.i.-.-.i.i.-.-.",
"i.i.-.-.-.-.-.-.-.-.-.-.-.-.-.-.-.-.-.-.-.-.>.k.N.Q ).oX%X@X@X%X+X_.).~.L.E c c l h.h.2.=.-.-.-.-.-.-.-.-.-.-.-.i.i.-.-.-.-.-.-.",
"-.-.-.i.i.g.g.g.-.-.i.i.-.-.i.i.i.-.-.-.i.a.v.H n C.]. X|.}.].(.Y.C.C.I.C.E c c l l x x Z j.i.i.i.-.-.-.i.i.i.-.i.i.-.i.-.-.-.-.",
"-.i.i.-.i.i.g.g.g.-.-.i.-.i.i.i.-.-.i.,.q.l.l r G I./.].].R.C.R R L R ^ ! m c R _ ) ^ m l z.p.i.-.-.i.-.-.i.i.i.-.-.i.i.-.-.i.i.",
"-.-.-.i.g.-.-.-.-.i.i.-.-.i.i.-.-.j.B.F.N.! G l G [ I.].R.^ L.U.] L l c n b L C.U.I.) Q L m <.=.-.-.i.i.-.-.i.i.-.i.i.-.-.-.g.i.",
"-.-.-.-.-.-.-.-.-.i.i.i.-.-.-.-.-.M.).|.).Y.I.] G Q C.).U.U.|..X].L.n c c n ` I.R.Y.{ ! E L 2 %.=.-.-.-.-.-.-.-.-.i.i.-.-.-.g.g.",
"i.i.-.i.i.-.i.i.-.-.i.i.-.i.i.i.s.^.+X*X&X@X|._.R.` C.R.R.).|.[.}.I.` n l n [ U.~.U.^ E R m z #.7.&.=.-.i.i.-.-.-.-.-.-.i.i.-.-.",
"-.i.-.i.-.-.-.i.-.-.-.-.-.i.i.-.M.XX*X=X*X$XoX|.).[ ^ L.[.}.).).].U.C.G c L } /.R.] R E L b b 7 %.%.%.=.i.-.-.-.-.-.-.-.-.i.-.-.",
"-.-.-.-.i.i.-.-.-.-.i.-.-.-.-.,.A.oX$X&X$X@X X`.U.E R R.@XOX.X.X X].L.R c R U.(.] E E ! G b l z %.%.%.%.&.=.i.i.-.-.-.-.-.-.i.i.",
"-.i.i.-.i.-.-.-.-.i.i.-.-.-.-.j ` I.}.oX[.Y.~.(.] m Q |.*X#X#X$XOX XL.E l L I.C.E R ` ! L b l b 7 6 6 6.5.&.i.-.-.i.-.-.-.i.i.i.",
"-.-.i.-.-.i.i.i.-.i.i.-.i.-.u.D c Q U.R.] E ) C.E m ] oX#X$X$X#X.XR.C.Q m m ] ` R E ] ! n c l b x h u 0 %.%.=.=.-.-.i.-.-.i.i.-.",
"-.-.-.-.-.-.i.i.i.-.-.i.i.h.x L R ` Y.C.Q R Q ` E n { |.|.@X#XXX}.R.[ R L m ! ` E E } E l c c c c c c b 4 t.d.f.-.-.i.i.-.-.-.-.",
"g.g.g.-.-.-.-.i.i.-.i.i.,.H { !./.I.C.` C.I.L.U.C.G L././.XX X).).C.^ R L n R E R E ! n l R L c R R n n y.7.5.f.g.-.i.i.-.i.i.i.",
"i.i.g.-.-.-.-.-.-.-.i.i.v.I.XXOX XR.J.I.[.oX).I.C.R L.U.L.(.~.L.C.! Q m G c c G E G c l G ) L b ^ ! n b D 5.7.=.-.-.-.-.-.i.i.-.",
"-.i.g.-.-.-.-.-.-.-.-.-.Z..X@XOX}.I.Y.).oX@X|.I.] G [ C.[ L.U.C.R R R n m l c c m n l m ^ ^ n m ^ L l n n 7 7.&.-.-.i.i.-.-.-.-.",
"-.-.-.g.g.g.g.i.-.-.-.l.T.oX@X#X[.U.].XX%X@X].C.! n Q Q ` [ C.` n n m n n l c l b n L ^ ` ` m m ^ R L R n 8 7.7.-.g.g.g.g.g.-.-.",
"-.-.g.i.i.g.-.-.-.-.-.b.U.oX&X&X).L.].OX#XoXC.G G m c v R Q ` R c m m c c l c l n L ! ` ` ^ n L ` ` ` Q b 2 7.%.-.-.g.i.i.i.g.-.",
"-.g.i.i.g.-.-.g.g.g.>.b.(.XX*XXXI.J. X#XoX].! R L.Y.} Q l v R n c R ^ G c l c l c n m R ^ ^ n m ) ) ! ! m v 6 %.-.-.-.g.i.i.i.g.",
"-.i.-.i.i.-.-.g.i.i.>.M._.+X$X).C.(.+X%X|.S.R C.OX*X&XoX] E ~.(.L.C.C.{ E c l n n n m n m m n L ` ^ E E m b 5 %.i.i.-.-.i.-.i.i.",
"-.-.-.i.-.-.-.g.i.-.>.Z.[.XX[.U.C.{.XXXX{.I.R }.=X=X%X@X`.(.XX@XoXXX}.I.[ R c ^ C.{ ` ! G c c L ` ! L L m n 7 &.-.i.-.-.i.-.-.i.",
"-.-.-.-.-.-.-.-.-.-.;.A.Y.Y.Y.C.I.XX[.R.^.U.I.@X*X*X@XoX[._.+X$X$XOXXXR.^ m ! U.Y./.U.C.` R c c R E m n m m u %.-.-.-.-.-.-.-.-.",
"-.-.g.g.g.g.-.-.>.g.8.R.U.C.} ) R. X).U.C.` R.#X*X&X+X X).|.@X#X#X$X$X[.E n U.R.U.R.Y.U.S.E c c c n n n m m A 5.-.-.i.i.i.-.-.-.",
"i.i.i.i.g.-.-.i.-.g.v.~.I.! E ! ]. X(.C.Q ^ R..X$X+X|.(.[.@X%X%X&X#XoX_.^ b Y.R.R./.R.J.] v c v v c n b G m H 3 -.g.i.i.-.-.-.-.",
"-.-.i.g.-.-.i.i.-.d.V.A.P b m L.|. XU.L R [ I.Y.[._.I.] ~.oX%X%XoX[.U.C.E c ` U.U.I.C.^ G l b m m n b n G G m 6 g.i.i.i.i.i.-.-.",
"i.i.i.-.-.i.i.-.-.j.b.x.8 x R (.|. X{ v E [ C.C.S.] ) E E C./.R.S.{ ^ ^ R c Q Q ^ C.^ L G v b L ! R n b m m A t.g.g.g.i.-.-.-.i.",
"g.-.-.-.-.-.-.-.-.p.w.l.9 Z ] _./.(._ v Q ] [ ` ` ^ R n y R ^ ] ] ! I I n r m R I ! L G m b b R ] R l n S H 8 %.-.-.-.-.-.-.-.i.",
"i.g.-.-.i.i.-.-.-.-.a.,.;.9 C.(.J.C.^ G ( P.+.e T O.q U  . .O.O.H.O.T  .T q U  .e d T F b n c L ` R l x 9 9 5 %.-.-.-.-.-.i.i.-.",
"i.g.-.-.i.-.-.g.g.-.-.-.-.;.N.C._ E G [ R.R.H.i U o.q @.Q.Q.E.E.H.E.E.E.E.i  .| i | o.l m G b m ! L l n 5 %.3 7.i.-.i.i.-.-.i.-.",
"i.i.g.-.-.-.g.i.g.-.-.i.i.>.m.c.F m ^ (.@X.X| e X.o.> | +.o.o.o.o.O.o.o.X.w | +.e U U l R ! n b L G l n r.t.5.9.i.-.-.i.-.-.-.-.",
"i.-.i.-.-.i.i.g.-.-.-.i.-.>.h.0 f n { XX*X'.i > p a : p s s B s a s s d s > p s > w B c L ^ G b n m b K 5.e.d.i.i.-.-.-.-.-.-.-.",
"i.-.i.-.i.i.i.-.-.-.-.-.>.i.a.*.0 n J.oX@X(.N , a a > & * * * * * * * * * $ p s < t k m L Q G x n m R y.e.3 &.-.-.-.-.-.g.g.i.-.",
"-.-.-.i.i.-.i.-.-.-.i.i.-.i.-.;.$.F R. X[./.) I H.E.t                     @ @.W.T v L L G G n v h F P 6 %.5.9.-.-.-.-.-.g.i.i.-.",
"-.i.-.-.i.-.i.-.-.-.-.i.-.-.-.-.9.S /.).(.I.E I K.Q.t     .   .   . .     # K.W.T n E m n v v f 3.8 5 %.3 9.=.-.-.i.-.-.i.i.-.-.",
"i.i.-.-.-.-.-.-.-.-.-.-.-.-.-.-.>.c.U./.Y.) { ' @.E.t     .   .   . . .   # @.K.T n G G x 8 f 8 5 %.%.%.&.=.=.-.i.i.-.-.-.-.-.-.",
"-.-.-.i.i.g.g.g.-.-.i.i.-.-.i.i.i.b.C.Y.{ ) [.P.o.K.t   . . . . . . . X   # +.@.T m G m n 7 1.<.6.%.%.&.i.i.i.-.i.i.-.i.-.-.-.-.",
"-.i.i.-.i.i.g.g.g.-.-.i.-.i.i.i.-.l.B._ } ]. XJ.o.@.1   . . . . o O + @ + * ..+.U G L n m 1.$.6.3 3 7.-.-.i.i.i.-.-.i.i.-.-.i.i.",
"-.-.-.i.g.-.-.-.-.i.i.-.-.i.i.-.-.-.s.b.S.[.~.( ..+.1   . . . . O % = ; 2 y ..+.C Q ] L m 0 5.%.%.&.i.i.-.-.i.i.-.i.i.-.-.-.g.i.",
"-.-.-.-.-.-.-.-.-.i.i.i.-.-.-.-.-.-.-.h.' L.C.W ....1   O + + % % - l G { } ~ ..C ` { L n 7 %.%.%.-.-.-.-.-.-.-.-.i.i.-.-.-.g.g.",
"i.i.-.i.i.-.i.i.-.-.i.i.-.i.i.i.i.-.-.k._ ` ` W Y .., o % - l l m Q { !./.O.C ~ V ) E m m $.7.7.9.-.-.-.i.i.-.-.-.-.-.-.i.i.-.-.",
"-.i.-.i.-.-.-.i.-.-.-.-.-.i.i.-.-.-.-.-.w.E ) W C ~ , + - l n ) } S.!.!.!.{ C C N E G n f 5.7.&.=.-.-.-.i.-.-.-.-.-.-.-.-.i.-.-.",
"-.-.-.-.i.i.-.-.-.-.i.-.-.-.-.-.-.-.-.-.-.h.x.m B C 1 = Q ) { S.!.).)./.!.' B C N G n J *.=.=.-.-.-.-.-.-.-.i.i.-.-.-.-.-.-.i.i.",
"-.i.i.-.i.-.-.-.-.i.i.-.-.-.-.-.-.-.-.i.i.-.0.j B B k E U.(._._.`.`.{.{.[.' M M M J q.>.-.-.-.-.-.-.-.i.i.-.i.-.-.i.-.-.-.i.i.i.",
"-.-.i.-.-.i.i.i.-.i.i.-.i.-.g.g.g.g.-.i.-.=.=.:.g f v.M.Z.G.^.D.!.!.G.D.D.A.K y.g a.i.>.i.-.g.g.g.g.-.i.-.-.-.-.-.-.i.-.-.i.i.-.",
"-.-.-.-.-.-.i.i.i.-.-.i.i.-.-.g.i.g.-.-.-.f.g.g.>.-.i.i.=.j.l.l.l.l.k.,.,.j.i.i.i.-.-.i.i.-.-.g.i.g.-.-.-.g.g.g.-.-.i.i.-.-.-.-.",
"g.g.g.-.-.-.-.i.i.-.i.i.-.-.-.-.g.i.g.-.g.i.i.g.g.-.i.i.-.i.i.i.g.g.g.-.-.-.>.i.i.-.i.i.-.-.-.-.g.i.g.-.g.i.i.g.g.-.i.i.-.i.i.i.",
"i.i.g.-.-.-.-.-.-.-.i.i.-.-.-.-.g.i.i.-.g.i.i.-.-.-.-.-.-.i.i.-.i.i.g.-.-.-.-.-.-.-.i.i.-.-.-.-.g.i.i.-.g.i.i.-.-.-.-.-.-.i.i.-.",
"-.i.g.-.-.-.-.-.-.-.-.-.-.-.-.-.i.-.i.-.i.-.i.-.-.-.i.i.-.-.-.-.-.i.g.-.-.-.-.-.-.-.-.-.-.-.-.-.i.-.i.-.i.-.i.-.-.-.i.i.-.-.-.-.",
"-.-.-.g.g.g.g.i.-.-.-.-.g.g.g.-.-.-.-.-.-.-.i.i.-.g.g.g.g.g.-.-.-.-.-.g.g.g.g.i.-.-.-.-.g.g.g.-.-.-.-.-.-.-.i.i.-.g.g.g.g.g.-.-.",
"-.-.g.i.i.g.-.-.-.-.-.-.i.i.g.-.-.-.-.-.-.-.i.-.-.-.g.i.i.i.g.-.-.-.g.i.i.g.-.-.-.-.-.-.i.i.g.-.-.-.-.-.-.-.i.-.-.-.g.i.i.i.g.-.",
"-.g.i.i.g.-.-.g.g.g.-.-.-.i.g.-.-.g.g.g.i.-.-.-.-.-.-.g.i.i.i.g.-.g.i.i.g.-.-.g.g.g.-.-.-.i.g.-.-.g.g.g.i.-.-.-.-.-.-.g.i.i.i.g.",
"-.i.-.i.i.-.-.g.i.i.-.-.-.-.-.-.g.g.i.i.i.i.-.-.i.i.-.-.i.-.i.i.-.i.-.i.i.-.-.g.i.i.-.-.-.-.-.-.g.g.i.i.i.i.-.-.i.i.-.-.i.-.i.i.",
"-.-.-.i.-.-.-.g.i.-.-.i.-.-.-.-.-.-.-.g.i.i.-.-.-.i.-.-.i.-.-.i.-.-.-.i.-.-.-.g.i.-.-.i.-.-.-.-.-.-.-.g.i.i.-.-.-.i.-.-.i.-.-.i.",
"-.-.-.-.-.-.-.-.-.-.-.i.i.-.i.i.-.-.-.-.-.-.-.-.-.-.-.-.-.-.-.-.-.-.-.-.-.-.-.-.-.-.-.i.i.-.i.i.-.-.-.-.-.-.-.-.-.-.-.-.-.-.-.-."
};
