/* XPM */
static char *_2f98503233845668ff8a7237e894664GavnMbU0YVdnrJEY[] = {
/* columns rows colors chars-per-pixel */
"16 16 4 1 ",
"  c #733E39",
". c #935840",
"X c #A56742",
"o c #C29969",
/* pixels */
"..XXXXXXXXXXXXXX",
" .XXXX   XXXX..X",
"XXXXXX .XXXX  .X",
"XXXXXX XoXXX oXX",
"XXX  XXXXXXXXXXX",
"XXX oXXXXXXXXXXX",
"XXXXXXXX .XXXXXX",
"XXXXXXXX..XXXX  ",
"XXX..XXXXXXXXX  ",
"XXX.  XXXXXXXXXX",
"XXXX  XXXXXXXXXX",
"  XXXXXXXXXXXXX ",
".XXXXXXXXXX .XX ",
"XoXXXXXX  X.XXX ",
"XXXXXXXX oXXXXXX",
"XXXX.XXXXXXXXXXX"
};
