/* XPM */
static char *_91cb48fd50e48a8b13aa4fbb463336bCCJhxLAHmGFvZ0pk[] = {
/* columns rows colors chars-per-pixel */
"64 64 3 1 ",
"  c #0E993C",
". c #00C62D",
"X c #70DB00",
/* pixels */
"  XXXX   X.    .  ... ..  ...     XXXX   X.    .  ... ..  ...   ",
"....X  . X..     ...  .  X..    ....X  . X..     ...  .  X..    ",
"  .X  .. XXX ..  ..     X.....    .X  .. XXX ..  ..     X.....  ",
"...  ..      ...       XXXX.   ....  ..      ...       XXXX.   .",
"X        ..   .. ....          .X        ..   .. ....          .",
".X  ..    .      ..          .. .X  ..    .      ..          .. ",
".X  .  XX     ..       .. ..  . .X  .  XX     ..       .. ..  . ",
"..X   X.X  ..  .    XX...  .    ..X   X.X  ..  .    XX...  .    ",
". .  ..X   .       X.XX..       . .  ..X   .       X.XX..       ",
". . ...      .. . XXX       XX. . . ...      .. . XXX       XX. ",
"   .. .   .. .  .    ..     X..    .. .   .. .  .    ..     X.. ",
" .  . .    .    .    .   .  ..   .  . .    .    .    .   .  ..  ",
"..                      ..      ..                      ..      ",
"   ..XXX  ..  ...   ... .. .       ..XXX  ..  ...   ... .. .    ",
" .. ..XXX  . ...  .  ...  ..  .. .. ..XXX  . ...  .  ...  ..  ..",
"   .X    ..  ..   ..  .. ..   X.   .X    ..  ..   ..  .. ..   X.",
"         ...             ..   XX         ...             ..   XX",
".. .. ..  .. ....   ..      ..  .. .. ..  .. ....   ..      ..  ",
" . .   .     ..     .        .   . .   .     ..     .        .  ",
"    ..    .           ..      ..    ..    .           ..      ..",
" .. .    ..        .. .  .   ... .. .    ..        .. .  .   ...",
"  .  ... .. . XXXX .      .  ..   .  ... .. . XXXX .      .  .. ",
"      ...  ..  X.X   XXX  ..          ...  ..  X.X   XXX  ..    ",
"XXX    .. ..    X.X X..XX .. ...XXX    .. ..    X.X X..XX .. ...",
"..X       ..    X.. X..      .. ..X       ..    X.. X..      .. ",
" .X             . . . .   ..     .X             . . . .   ..    ",
"   XXXX.    XXX       .. XXXXX     XXXX.    XXX       .. XXXXX  ",
"  X..X      ..X       .   X...X   X..X      ..X       .   X...X ",
" X..X  XXX   .X  XXX.      X...X X..X  XXX   .X  XXX.      X...X",
" . ..  X..      XX....  ..  . .. . ..  X..      XX....  ..  . ..",
"   .   X.  .       X..   .  .  .   .   X.  .       X..   .  .  .",
"           .. ..                           .. ..                ",
"  XXXX   X.    .  ... ..  ...     XXXX   X.    .  ... ..  ...   ",
"....X  . X..     ...  .  X..    ....X  . X..     ...  .  X..    ",
"  .X  .. XXX ..  ..     X.....    .X  .. XXX ..  ..     X.....  ",
"...  ..      ...       XXXX.   ....  ..      ...       XXXX.   .",
"X        ..   .. ....          .X        ..   .. ....          .",
".X  ..    .      ..          .. .X  ..    .      ..          .. ",
".X  .  XX     ..       .. ..  . .X  .  XX     ..       .. ..  . ",
"..X   X.X  ..  .    XX...  .    ..X   X.X  ..  .    XX...  .    ",
". .  ..X   .       X.XX..       . .  ..X   .       X.XX..       ",
". . ...      .. . XXX       XX. . . ...      .. . XXX       XX. ",
"   .. .   .. .  .    ..     X..    .. .   .. .  .    ..     X.. ",
" .  . .    .    .    .   .  ..   .  . .    .    .    .   .  ..  ",
"..                      ..      ..                      ..      ",
"   ..XXX  ..  ...   ... .. .       ..XXX  ..  ...   ... .. .    ",
" .. ..XXX  . ...  .  ...  ..  .. .. ..XXX  . ...  .  ...  ..  ..",
"   .X    ..  ..   ..  .. ..   X.   .X    ..  ..   ..  .. ..   X.",
"         ...             ..   XX         ...             ..   XX",
".. .. ..  .. ....   ..      ..  .. .. ..  .. ....   ..      ..  ",
" . .   .     ..     .        .   . .   .     ..     .        .  ",
"    ..    .           ..      ..    ..    .           ..      ..",
" .. .    ..        .. .  .   ... .. .    ..        .. .  .   ...",
"  .  ... .. . XXXX .      .  ..   .  ... .. . XXXX .      .  .. ",
"      ...  ..  X.X   XXX  ..          ...  ..  X.X   XXX  ..    ",
"XXX    .. ..    X.X X..XX .. ...XXX    .. ..    X.X X..XX .. ...",
"..X       ..    X.. X..      .. ..X       ..    X.. X..      .. ",
" .X             . . . .   ..     .X             . . . .   ..    ",
"   XXXX.    XXX       .. XXXXX     XXXX.    XXX       .. XXXXX  ",
"  X..X      ..X       .   X...X   X..X      ..X       .   X...X ",
" X..X  XXX   .X  XXX.      X...X X..X  XXX   .X  XXX.      X...X",
" . ..  X..      XX....  ..  . .. . ..  X..      XX....  ..  . ..",
"   .   X.  .       X..   .  .  .   .   X.  .       X..   .  .  .",
"           .. ..                           .. ..                "
};
