/* XPM */
static char *_e4edaa0399e42fbfd76a1a172b2db58AXq1esWe5fEZ01FT[] = {
/* columns rows colors chars-per-pixel */
"16 16 10 1 ",
"  c #181425",
". c #221928",
"X c #23243B",
"o c #3E2731",
"O c #262B44",
"+ c #2D3350",
"@ c #BE4A2F",
"# c #F77622",
"$ c #FEAE34",
"% c #FEE761",
/* pixels */
"..O#@oX. @#oO O ",
"#$@$#@OX@#$+X O$",
"+o++$#@@#%+o +#@",
"X  Xo$##$@+XX @ ",
"+X  O%%$#$@X+@O ",
"O+Xoo#oOX#$@@#XO",
" OOo%oX  X ##$# ",
"%$$%$oX XOX$%$$%",
"  #$#@oOOX@#$## ",
" +oo$#@@##$%## o",
"+XX+#%#Xo   #%X+",
"o  X#$ o    o$ X",
"..O#@OX     .@$#",
"#@@$#oO +  #$#@$",
"+o+@$ oo  #@+o++",
"X   @o   #@ X   "
};
