/* XPM */
static char *_b54a0f9319e4963f46631389912e15doRfzf0BKbDSVgda8[] = {
/* columns rows colors chars-per-pixel */
"64 64 251 2 ",
"   c #1A1526",
".  c #1A1628",
"X  c #1D1A2C",
"o  c #1F1E32",
"O  c #241926",
"+  c #271926",
"@  c #231B2C",
"#  c #2B1D2B",
"$  c #351E28",
"%  c #221E32",
"&  c #1F2035",
"*  c #3C2727",
"=  c #34212D",
"-  c #3A222D",
";  c #30292C",
":  c #242135",
">  c #2C2234",
",  c #24243B",
"<  c #2B263A",
"1  c #2C293D",
"2  c #332433",
"3  c #3B2534",
"4  c #362836",
"5  c #3C2B35",
"6  c #322639",
"7  c #342A3C",
"8  c #3C2B3C",
"9  c #3B303D",
"0  c #44252B",
"q  c #47272A",
"w  c #582A29",
"e  c #44342A",
"r  c #5A362B",
"t  c #462633",
"y  c #442A35",
"u  c #4B2B34",
"i  c #422C3B",
"p  c #4B2D3B",
"a  c #5B2D35",
"s  c #542D38",
"d  c #473737",
"f  c #45333B",
"g  c #4B323C",
"h  c #4B3A3B",
"j  c #5C333B",
"k  c #583838",
"l  c #6C2D2B",
"z  c #62332B",
"x  c #673729",
"c  c #753829",
"v  c #652F34",
"b  c #623334",
"n  c #693738",
"m  c #633B3B",
"M  c #773936",
"N  c #733B3B",
"B  c #5F4129",
"V  c #594438",
"C  c #63442B",
"Z  c #78462C",
"A  c #71532D",
"S  c #65443B",
"D  c #6A4638",
"F  c #794637",
"G  c #665539",
"H  c #785738",
"J  c #7C693C",
"K  c #262942",
"L  c #2A2C44",
"P  c #2A2E49",
"I  c #322D42",
"U  c #3C2D41",
"Y  c #383043",
"T  c #442E41",
"R  c #443342",
"E  c #483843",
"W  c #583842",
"Q  c #643B43",
"!  c #733A41",
"~  c #5A4245",
"^  c #644944",
"/  c #774843",
"(  c #675345",
")  c #7A5645",
"_  c #7A604A",
"`  c #853A2A",
"'  c #943E2F",
"]  c #843B33",
"[  c #8B3C34",
"{  c #873D3A",
"}  c #88462A",
"|  c #9C422C",
" . c #9A4828",
".. c #87542C",
"X. c #9A5A2D",
"o. c #884836",
"O. c #84453B",
"+. c #8C443A",
"@. c #9B4333",
"#. c #974937",
"$. c #8A5635",
"%. c #8A553C",
"&. c #995537",
"*. c #A4492C",
"=. c #AB4B2D",
"-. c #B44C2C",
";. c #A85529",
":. c #BB542D",
">. c #B95829",
",. c #A34736",
"<. c #A44B34",
"1. c #AB4B33",
"2. c #B24E33",
"3. c #A35534",
"4. c #AC5335",
"5. c #AB5B34",
"6. c #A75A38",
"7. c #B45333",
"8. c #BB5532",
"9. c #B35C33",
"0. c #BA5B34",
"q. c #86612D",
"w. c #8A6939",
"e. c #976637",
"r. c #89773C",
"t. c #95753A",
"y. c #A5632C",
"u. c #A9662D",
"i. c #B7672D",
"p. c #BB6B2E",
"a. c #B3742E",
"s. c #A96637",
"d. c #BB6333",
"f. c #B56937",
"g. c #BD6B34",
"h. c #A97739",
"j. c #B97936",
"k. c #C65929",
"l. c #C35C2D",
"z. c #CA5C2C",
"x. c #D25E29",
"c. c #C35B31",
"v. c #CA5E31",
"b. c #C4672A",
"n. c #CC622D",
"m. c #CB6B2D",
"M. c #D3632C",
"N. c #D96628",
"B. c #D56B2D",
"V. c #DB6C2C",
"C. c #C9762E",
"Z. c #D3722D",
"A. c #DC732D",
"S. c #D67B2D",
"D. c #DA7B2E",
"F. c #C56332",
"G. c #CB6531",
"H. c #C46B34",
"J. c #C86A34",
"K. c #D26A30",
"L. c #C47334",
"P. c #CC7333",
"I. c #CB7C33",
"U. c #C57939",
"Y. c #D47432",
"T. c #D87633",
"R. c #D47C33",
"E. c #DB7D32",
"W. c #E16D2A",
"Q. c #E97826",
"!. c #E2752C",
"~. c #E57C2C",
"^. c #E47C2F",
"/. c #E97D2C",
"(. c #863F40",
"). c #864A42",
"_. c #855846",
"`. c #965941",
"'. c #A75640",
"]. c #8A6642",
"[. c #976745",
"{. c #8A7141",
"}. c #967944",
"|. c #A97343",
" X c #AF7142",
".X c #C17F40",
"XX c #AC863C",
"oX c #B88539",
"OX c #CB822F",
"+X c #DA842E",
"@X c #CA8637",
"#X c #D48433",
"$X c #DB8433",
"%X c #DC8B33",
"&X c #D58A39",
"*X c #CB953B",
"=X c #D9973A",
"-X c #E5832D",
";X c #EB832D",
":X c #E68A2F",
">X c #EC8B2E",
",X c #F48529",
"<X c #F48C2C",
"1X c #EF902F",
"2X c #F4932E",
"3X c #F9942E",
"4X c #E28432",
"5X c #EB8530",
"6X c #E48B33",
"7X c #EA8C32",
"8X c #F38D31",
"9X c #E49334",
"0X c #ED9233",
"qX c #ED9B35",
"wX c #E7973A",
"eX c #ED9D3C",
"rX c #F39432",
"tX c #F59B35",
"yX c #F79C36",
"uX c #EAA33C",
"iX c #FAA334",
"pX c #F4A43B",
"aX c #F8A73A",
"sX c #FBAB3B",
"dX c #FBB13E",
"fX c #AB8845",
"gX c #B58A43",
"hX c #AA9246",
"jX c #AB9644",
"kX c #B99746",
"lX c #C88941",
"zX c #C89A44",
"xX c #D99943",
"cX c #E89E42",
"vX c #C8A648",
"bX c #D8A946",
"nX c #C6B14C",
"mX c #D8B64C",
"MX c #D4BD51",
"NX c #E6A945",
"BX c #ECAA42",
"VX c #F3AD42",
"CX c #F8AB40",
"ZX c #E7B649",
"AX c #F4B445",
"SX c #FAB442",
"DX c #FBBB45",
"FX c #F6BC49",
"GX c #F8C24B",
"HX c #ECC351",
"JX c #F2C650",
/* pixels */
"0 0 0 0 e 0 * f k m ).4.F.B.V.N.x.z.-.| [ M v t 3 > < % % @ @ $ $ w l ` | -.x.x.N.W.N.l.;.o.n g 8 1 , , & o o & , , 1 7 4 5 * * ",
"z r z z r x C k m F #.5.J.V.W.W.N.z.:.1.' M v u t 6 6 % # > # - t w l ' | -.x.x.W.W.V.b.4.o.n p 7 1 , , & o & & , 1 9 f h B B B ",
"Z } } } ..H ..Z o.%.&.9.K.T.!.!.V.M.l.7.| [ M v p t 6 < > # t t w l ` ' -.k.x.N.!.!.A.J.5.o.n g 7 1 , , o o % : < 9 h V A A H ..",
";.;.;.y.u.y.s.e.&.&.s.H.Y.^././.!.V.z.:.-.' ] M a p i 6 2 3 t a l ` ' =.-.x.N.W./.^.E.J.s.%.D E I 1 , : o o o > 4 h V H q.y.t.a.",
"k.>.p.b.C.a.j.f.f.6. XU.R.4X5X5X/.!.B.z.:.1.@.{ N a t t i t a l ` ' ,.c.x.N.!./.5X4X$XU.s.%.^ f I 1 , : & : # 6 i k H w.e.j.oXOX",
"N.m.P.Z.OXOXOXj.g.d.F.H.R.$X6X7X;X^.!.N.z.8.1.@.{ ! Q s a W l [ ' 1.c.G.N.!.^.8X7X6XlXU.[._.^ E L , , : % > 6 y k F _.e.j.@X*X#X",
"b.B.P.P.S.OXOXU. Xf.J.U.P.&X6X6X;X5X^.!.B.n.8.1.' { ! ! ! M { ' 1.8.G.T.^.;XeXwXwXwX@X X[._.~ E 7 , , : > 4 u k D +.6.f.OX#X%X9X",
"b.d.H.L.U.L.j.f.f.'.'. X X.XR.xX6X7X;X^.!.B.z.8.,.,.[ { { [ ' 1.8.G.T.E.cXcXcXcXxXlXgX|.`.H W U 1 , : : 6 i j N +.&.s.g.U.#X+X+X",
"'.'.'.s.s.s.s.e.`.`.`.`.[. X.XlX&X6X5X;X/.!.B.z.c.1.,.,.,.,.2.8.n.Y.4XwXcXVXNXbXxXgX|.[./ ^ W U I 6 % K 3 p ! (.&.9.d.H.Y.Y.R.S.",
").).).%.%.%.%.$.) / / ) _.[. X.X&X%X7X7X;X^.!.B.z.c.c.2.-.2.c.v.B.^.5XeXcXZXZXxXkX|.[._ Q W T 6 % % % % U W ! +.6.0.v.G.G.G.J.m.",
"^ ^ Q S S S S k j W W ~ ^ / _. XU.@X%X:X>X;XQ.!.M.x.v.v.z.z.M.V.T.5XwXeXNXZXmXvXkX_ _ ^ W T T 6 2 % % I 8 W (.+.7.c.v.c.n.>.>.9.",
"R R R f f f d f f 8 R R E ^ ) ].h.oXOX%X6X>X;X-X!.W.N.M.M.N.W.!./.8XrXpXcXbXxXzXfX_ _ ~ T 6 6 6 2 % % % 8 a ! @.4.c.c.c.>.-.*.| ",
"Y L I 6 4 > 2 = > < 1 1 U h ^ H e.h.j.#X6X7X8X5X/.^.!.W.!.Q.Q.,X8X8XrXeXcXxXlXgX[._ ~ ~ P P 6 L % % I 6 t a ! [ 1.-.-.-.*.' ` ` ",
"L L K , : : % % % & : : 7 9 h S H w.h.U.&XwXeXrXrX8X8X/./.^./.,X8XrXrXqXwX&XlX X[._ Q W W P L U I % 6 3 t v M [ | ,.-.| ' ` c l ",
"K K , , : & % % X X X : : 6 i h S $.t.oXzXNXVXCXpXpXyX8X8X8X<X<X3X3X2X0X6X&XU. X[._./ Q T T P P < 6 8 t a v ] [ ' @.' ' ` l w w ",
"L K K K : & % X X X X X % > 2 5 h H t.oXzXNXAXFXSXCXCXCXyX3X3X3X3X3X2X7X6X%XR.U. X'.).! Q T T P 7 i p W v l ] [ [ ' ` ` l w 0 $ ",
"L L K K , , o o X X X X X % : 4 V G {.jXvXZXFXJXGXFXFXSXsXyXtX3X2X3X<X<X7X6X$XI.H.'.&.).N W p T T T j ! (.[ [ [ [ { ! l a t $ + ",
"P P P K K , & o X X X X X X : ; 9 G {.fXvXZXHXJXJXJXFXZXVXBXqX0X>X>X>X>X7X7X6X#XU.H.6.#.{ ! b W W W ! (.(.,.@.@.{ { v a t - # + ",
"P P P P K K K & & % % @ X @ # 2 h G {.fXvXmXHXHXHXHXZXZXNXcX=X6X$X-X-X-X>X>X7X4X$XP.g.6.#.O.N ! ! (.(.(.'.,.2.,.{ ! a p 3 > % @ ",
"P P P P K K K K : : o % % ; > 5 h G {.fXzXmXZXmXZXmXnXvXzX*X@XU.P.P.Y.D.:X>X>X>X4XE.P.g.5.&.+.+.(.(.,.,.2.8.2.'.[ { a T 6 , : % ",
"P P P L P P K K , , & : ; ; 1 e V H t.|.lXxXNXbXzXzXkXgXfX|.h.s.s.d.g.m.D.-X:X:X6X4X#XP.g.5.<.@.,.,.2.8.v.v.v.'.#.O.m p 6 6 : , ",
"K P P P K P K K 1 , , ; 9 ; d V G H e.h.U.lXlXlXoXfX}.}.w.w.w.$.$.&.3.d.m.D.^.:X7X4X+XI.H.F.8.7.2.2.8.v.v.K.v.v.5.#.N j p U 6 , ",
"K , K L L P P K P 1 1 1 5 V V G _ w.h.h.j.U.U.g.s.e.H H G D S S n Z o.3.i.b.C.S.+X+X+XR.m.m.v.l.v.v.M.W.W.^.T.K.d.3.+.N W p U < ",
"1 K L I I P P P I 1 1 ; 9 V G G {.fXfXgXoXj.f.6.$.H S h h h f f g k F } 3.9.p.C.I.C.C.C.P.B.M.N.x.M.W.W././.^.T.P.d.<.' M W p 6 ",
"9 d d E Y ~ Y Y ~ Y V E V G J fXjXjXkXkXoXh.s.$.Z m u 5 6 > > > - y a M } ..3.y.u.i.p.b.C.B.V.V.V.Q.Q.-X>X2X<X:XS.m.d.3.$.F V h ",
"G G G G G ( ( ^ ^ G ( G G J fXjXkXnXnXnXgXt.$.F b s y > % % % X # - q a n F o.o.$.X.y.i.m.A.Q./.;X>X<X2X2X2X2X2X;X+XZ.p.y.w.H G ",
"r.J r.r.].].w.w.].].].r.}.fXjXvXnXmXmXvXgXt.H S s 5 4 : : X o . X # 2 y u k k m D Z X.i.m.D.;X>X<XrXqXiXiXiXiXiX0X:X%XOXoXXXXXr.",
"jXjXjXjXXXfXh.h.h.XX|.fXjXjXvXmXmXmXbXvXfXt.A k y 2 > : o o .   X % > 2 6 5 5 d k Z o.u.C.+X2XtXaXaXsXdXiXiXiXiXtX2X9X=X*XvXjXXX",
"nXnXvXvXoX*XoX*X@XlX*XvXvXbXmXmXZXZXmX*XXXt.H k 5 4 > % % o o o o % % , < < 7 5 u D $.u.I.6XuXpXCXSXDXSXdXdXiXiXiXiXuXbXbXbXnXnX",
"MXMXmXnXvXbX=X=X=X=XuXmXmXZXZXHXFXZXuX*XoXe.A k y 4 6 % % o o o o % K % , L I 8 j D $.f.OX9XuXdXDXGXGXDXdXdXdXiXiXiXiXdXuXMXMXMX",
"MXMXnXnXbX=X=X=XwXuXuXuXFXGXJXGXAXuXuX*Xa.X...n s y 4 % % % % % % K , K K 6 8 p m F X.f.OXwXpXdXDXGXGXDXDXdXiXiXiXiXaXuXuXMXMXMX",
"nXnXnXnX*X*X*X9X9XqXpXdXDXFXFXdXdXuX9X#XL.5.o.M b u t 6 > % < > , , < < U T T j N %.6.g.#X9XaXdXdXDXGXDXdXiXiX2XiXqXqXuXmXbXbXnX",
"jXjXXXXXXXXXOX@X+X:XqXaXdXdXdXdXaXtX>XD.m.9.*.[ M a p t 3 i 3 i U T i T p g b ! o.<.d.H.#X7XtXCXCXSXDXdXsXyX3X3X<X<X:X9X*XoXkXjX",
"r.J XX..w.e.y.p.C.+X:XqXuXuXuXpXtX0X>XD.m.l.4.@.[ M v a s s T W j j W m m N F +.#.5.g.S.$X0XtXiXsXsXsXiXiX3X3X,X,X;X+XOXa.XXXXXX",
"G G G G A A ..5.p.C.D.+X9X9X9XqX0X8X;XQ.A.n.8.1.' [ M M n n N N ! O.).O.+.+.#.6.f.g.C.%X7XrXyXpXsXpXiX3X3X,X/.Q.Q.W.m.a.y.q.A G ",
"e ; e d e m F o.3.i.p.C.OX*X%X9X:X>X>X;X!.V.v.c.=.@.' [ { { { +.#.,.#.4.4.5.9.g.P.OX%X=XeXBXCXCXiXiX3X3X,X,XQ.Q.N.b.>.;...A B e ",
"; : ; & 5 p j N o.&.5.y.a.j.I.OX%X:X1X>X/.^.V.v.c.-.,.,.' ,.,.1.4.9.>.k.d.b.J.P.OX%X9XuXuXdXFXdXsXtX3X8X/./.Q.V.m.>.;.} Z r e 0 ",
". X & & 7 8 E m N Z o.o.$.e.a.L.%X9X1X2X8X^.^.T.v.c.-.1.,.1.1.2.8.l.n.n.n.B.Z.S.+X9XuXuXZXAXZXdXCX3X3X8X,X,X^.Z.p.;.} c z w t 5 ",
"& & & K 1 I T T k b m D F %.e.j.OX9X0XtXrXrX7X^.T.K.c.-.-.1.1.7.:.l.x.b.x.m.Z.Z.OX+X=XbXmXZXuXuXeXrX8X8X3X8X4XY.p.X.Z k u u 8 5 ",
", , , K K L I U 8 y d g V / &.f.I.%X0XiXpXCXcXwX4XT.v.c.2.1.1.=.7.:.>.>.b.b.p.b.OXOX*X*X*XvXbX=XwX8X8XrXyXeXxXlXh.w.D k i 7 7 U ",
"K K K K L K L ; 7 7 7 8 E / %.f.U.6XeXyXCXCXCXcXwXT.B.c.4.,.| #.@.*.;.*.;.;.;.y.y.u.XXXXoXXX*XOX&X6X0XtXsXBXbX*Xh.w.G U 7 I Y I ",
"K P K K K 1 , 1 < < < 7 E m _.'.U.$XwXpXCXFXFXVXcX$XP.0.*.@.O.] Z ] } } ` } } } ..q.q.q.q.y.XXa.I.E.7XeXNXBXbXvXfX{.G h L P P I ",
"P L L K 1 , , , , , , 7 T Q O.6.H.E.eXCXCXFXAXVXcX#XC.9.#.O.x x v z a z l w z z B C C r A A ..;.p.P.%XcXBXZXmXvXfX{.G E I P P I ",
"9 L 9 1 1 , , & % : , 1 p Q ).6.J.T.8XpXCXAXAXNX=XOXi.3.} M a u t q q q * * * * * * e e e B C  .;.p.@X=XNXNXbXvXfXr.G E Y I I I ",
"I 7 7 > , & & X % : > 4 g N +.6.G.T.7XtXCXCXNXcX@Xj.y.} M z u - - # # # # + O O O O O O = * x c ..u.L.@X=XuXbX*XXXt.G V f E R R ",
"7 4 4 2 ; & % X : # 2 u j N +.7.G.T.4X7XcXcXxX@XoXs...Z x u 0 - # # + O   O             O * * x Z ..s.@X*X=X=X*XXXe.$.D S m m m ",
"5 2 > # ; @ O X # 2 q a M o.<.9.v.K.^.4X6X=X&XoXu.q.Z r u 0 - # # + X                     + * q z Z ..a.OX*X*X@Xj.a.e.....o.O.O.",
"- - ; ; # # @ ; - t k M o.#.4.c.G.V.T.Y.I.OXj.h.w.H k e - = > # + O X                   O O $ * r C ..s.j.OXOXOXOXa.a.s.y.5.4.3.",
"q q 0 0 $ $ = - t s N o.X.7.c.n.M.M.G.J.J.f.s.w.F S d - 2 # # O O . . .             + + $ * * * r C ..X.i.L.OXOXOXOXOXC.L.m.b.F.",
"z z w w w w u w a n O.<.9.b.M.B.B.G.F.0.s.&._.H V h 5 > % @ X @ X X X .         + + $ * 0 w w C x Z ..X.i.H.Z.OX$X-X+X+X+XD.D.A.",
"c } ` c c l l l n M #.5.J.B.A.A.V.M.F.8.&.%.D k h 9 ; , % X X o X X X X   .     + + * w x c Z } ..X.3.u.i.m.Z.R.+X$X:X:X>X>X;X;X",
";.*.*. .' ] ] [ [ #.6.g.P.E.^.^.!.B.l.7.#.O.n g 9 1 < % % X o % & : & : X .   + $ * w c }  .;.y.y.p.p.b.m.B.Z.A.D.:X:X>X>X>X<X<X",
">.>.>.=.=.| ' ' @.,.9.L.R.4X>X;X^.A.m.9.X.M b f 7 < , : : X % % & , & & @ @ + + * w c `  .;.i.b.C.C.C.R.Z.Z.A.A.T.T.4X7X>X2X2X2X",
"n.n.l.:.-.=.*.,.,.2. XH.E.4X>X>X;XQ.B.b.3.O.m p 7 1 < , : : % % , , , , + + ; q w l `  .>.b.m.S.OXOX#X$XD.A.V.B.K.Y.Y.E.%X9XqXqX",
"M.n.l.c.7.1.,.,.,.4.0.L.R.4X7X>X;X-XD.b.;.o.m e 4 1 > > : % # : , , , , $ $ * w c `  .>.k.b.Z.R.+X#X#X$XS.B.m.F.F.J.J..X&X%X%XwX",
"0.0.0.4.1.,.@.' '.,.5.g.U.E.6X>X>X:XD.C.u.} n u 4 2 7 > > ; > < > , , , $ q w c `  .;.>.z.n.B.Y.Y.@XU.U.L.g.d.8.7.'.0. X X XlXlX",
"'.'.'.@.@.[ [ { (.{ &.'.H.P.$X4X:X:X+Xj.u...x d 4 2 4 2 = = # ; > > > = - w c }  .-.>.k.k.x.n.H.j.f. Xf.s.6.3.#.&.).`.`.[.|.|.|.",
"(.).(.M ! M n ! ! ! (.`.6.H.P.E.+X>X+XC.y...C u - 2 2 5 2 = = ; > > * 0 w x `  .-.k.k.x.k.k.0.9.'.`.`.%.%.o.O.{ ).! / / _._.]._.",
"Q Q W Q W a T a j j N { &.5.g.P.S.#XOXa.y...B e - = = = = = $ + = - 0 w c `  .;.-.x.x.x.k.>.=.#.).)./ S S m m j j W W W ~ ^ ^ ^ ",
"R U T T T t t 3 i p j N O.#.;.g.C.I.C.p.y.Z r 0 = ; = = # # + $ $ 0 w c }  .-.>.k.x.k.k.-.*.' ` N Q k g f u y y i 8 U T R Y R R ",
"P L I 6 6 > > 6 6 3 t v l O. .5.i.b.g.u.X.Z r q = # # # + + + + $ q x }  .>.>.k.x.k.k.-.=.' ] M j p i 6 6 2 2 > > < < , K K 1 1 ",
"L K K % % @ @ @ @ $ - 0 w c }  .;.9.5.;.o.c k - = O + O + + + + $ w c  .;.k.x.x.x.k.-.-.' ` l w u 8 7 > % % @ @ % o o o % % o % ",
", , % , % % @ @ @ @ # $ q w c ` *.*.3. .} M w 0 = @ @ O   + + + * w c  .>.x.N.x.x.k.-.| ` l v t 3 6 % % % @ X X . X o . . . . o ",
", , , % X X .       + + $ q l ` ' *.,.| [ l w * = + O .       O * w `  .>.N.N.N.x.k.-.| ' l t 3 2 % , % % X .       . . . . . . "
};
