/* XPM */
static char *_2ab4a1ac1374e71fc8dd4a15bca6a4fvthPxQPCvaUTaUeQ[] = {
/* columns rows colors chars-per-pixel */
"80 48 64 1 ",
"  c #0E0C0B",
". c #141110",
"X c #1E1918",
"o c #3D1414",
"O c #352D1A",
"+ c #2D2724",
"@ c #302421",
"# c #3E3632",
"$ c #6A1616",
"% c #42241F",
"& c #542D22",
"* c #4B392F",
"= c #5E3326",
"- c #733B2B",
"; c #15561B",
": c #387D26",
"> c #594229",
", c #65462C",
"< c #7F412F",
"1 c #73502E",
"2 c #7A5438",
"3 c #755938",
"4 c #363F41",
"5 c #3F3E42",
"6 c #1D5D6E",
"7 c #524842",
"8 c #504F54",
"9 c #49595A",
"0 c #61554C",
"q c #7F5E43",
"w c #605F70",
"e c #5D7274",
"r c #B03017",
"t c #835D37",
"y c #A14F36",
"u c #8E6131",
"i c #A46D32",
"p c #D4561C",
"a c #E07A1A",
"s c #C25C3D",
"d c #8B6D46",
"f c #936543",
"g c #99784D",
"h c #A87957",
"j c #5FA031",
"k c #B88732",
"l c #EFAA2A",
"z c #91C53F",
"x c #A68354",
"c c #D19F47",
"v c #E0C471",
"b c #1F7782",
"n c #6F7081",
"m c #219A8E",
"M c #389A99",
"N c #778F92",
"B c #42AB9E",
"V c #25C8A9",
"C c #3FE2B2",
"Z c #47E3C7",
"A c #858995",
"S c #9CAEAF",
"D c #A0A4AA",
"F c #8EF3D5",
/* pixels */
"qqddqqqqqqqqq,,,,,qqdgxxgdqqqqqqddddddddddddddddnDDAn85DDAAn5An84444444444444444",
"gggddggxdddddq,,,qgxxggdddxxgdqqtgddddddddddddd1nDAAAw8AAAww5888SN94SSSNSNNSSNNN",
"qqqxxgddggqqqqq,,,qdqqqqxgdddddddtgdddddddddddddDAAAAw5nww58nn8nee94Seeeeeeeeeee",
"dqqqqqqdddddgxdq,qdddddqqqqqqqggddddddddddddddddnwDAw558558DAw5n9994N99999999999",
"dgxgddqqqdgxxggd,,,qqqqqqdgggdddddddddddddtddddd8nww5nDDn88Aw5584444444444444444",
",,,,,,,,,,,,,,,,,,,,,,,,,,,,,,,,ddddddddddddddddn8558nDADn8858DASSNNNN94SSNNSNNS",
"q,,gxggdqqddgxgxqqqqqqdddgxxgddqddddddtgddddddddw8nn88wAAn55nDAAeeeeee94Neeeeeee",
"dq,qddxxggddqqqqqqgxggdddddddddddddddddddddddddd5nAAn88ww555nwAw99999994S9999999",
"xg,,qqqqdddddddqqqqqdddggddqqddddddddddddddddddd8nDAAn888DAn8nw84444444444444444",
"dd,,,qdqqqddggdddgxgxxgqqqqddgxxddddddddddddddtdn85nnn5nDAAw88DDSNNSNNSSNNNN94NS",
",,,,qddddqqqdddddddddddddddqqqqqddddddddddddddddDn885588nww58nDAeeeeeeeeeeee94Se",
"q,,qddddddggxxxgdddddggdqqgxgddddddtddddddddtgddAAn55Dn855888nAA99999999999994N9",
"gq,qqgxxgddxgqqqqddqqddgxxqqqqqddddddtddddddddddAAw8DAAnn5nA58wA4444444444444444",
"gg,ggddqqqqqqdddggxgdddqqqqqqdggddddd1tgddddddddAww5nDAAw5DAA8nDSNNNN94SSNNNSSNN",
",,,,,,,,,,,,,,,,,,,,,,,,,,,,,,,,ddddddddddddddddw558nDDw885nw55weeeee94Seeeeeeee",
"dddddddqqqqdddqq,,,qqqqdddddgxgddddddddddddddddd88nn5ww5nDA88DA59999994N99999999",
"==&&&===&==y%&&=XXXX+.  .. .7#+#XXXX@op$ralp3*@*ccvuiikckccuiikk###X0#7###+.7#7#",
"<<<--<<<<<<y%=<<XX+##. .++.....XXX@*opoo@@o$rooXkccvuikkckcvuiic#+#X77####+X####",
"<---<<<<---s%=<<+# ....+++++....@*oo$r$@@@@@oo$okkccciikkccccuii##+X7####+#.7###",
"<<<<<<<---<y%=<<  ...++XX#++++X.papro@@XX*@@@@X$ickccuikckcccvui#++X##+#+++.7#+#",
"-<<<--<<<<<y%&-- .++XX+++XX##XXX$o@@XX@@@XX**XXXikcccviikckcccvi+++.#++++++X#++#",
"--<<<<<<--<s%&--.+++++X+++XXX+++o@@@@@X@@@XXX@@@ikckccuikkckccvu.XX..XX.X..XXXXX",
"<yyysss<<yss%&<y+++++X+XXXX++++#@@@@@X@XXXX@@@@*ikkcccviikkcccvu00077#X007077#X0",
"%%%%%%%%%%%%%%%%XX+++++#XX++++7.XX@@@@@*XX@@@@3$ikcckcvuikckcccu77#7#+X07#7##+.0",
"&&&&<%&&=&&&==&&++XX++XX  .#7#..@@XX@@XXooo*3*arikkkccvuikkckcvi7###++.7######.7",
"----<%&<<--<<<<-#+++#XXXX. ..++X*@@@*XXXX$rao@@Xkkkckcvuikkccvui#7####X7#####+.7",
"----y%=<<<<<<<<<XX7#X.X+++..++++XX3*XoX@@@op@@@@kkkkcvuikkckcvui###+#+X####+#+X7",
"<<<-<%&--<<<<-<<XXXXX.+++++.X+++XXXXXo@@@@@oX@@@kckccvuikkcccuui##+#++X7##+#++.#",
"-<<<y%=<<<--<<<-++XXX..+++#X++++@@XXX$o@@@*X@@@@kkckcuikkckcvuik+#++++.#++++++X7",
"<<<<s%&<<<<---<<++++. .+++.X++++@@@@opo@@@oX@@@@kckcvuikckccuuicXXXXX....XXX...X",
"ssyss%&yysyy<y<<++#.  .#++.+++++@@*Xopa*@@o@@@@@ckcvuukkkccuuikk7##X007#7#+X0070",
"%%%%%%%%%%%%%%%%7..    .#7.#++++3XXXXalo*3$*@@@@kcvuuikkccvuuikc##+X07#####.07#7",
"::::::::j;::::::;;;;:;;;;;;j;;;;OOO>fffffffOOO22CCVmVm66bb6m66CFBBBBBBBBMMBZVBBB",
"::z:::::::::::::;:;;;;;;;;;:;;;;O>>>ffffffhO>OOOC66mVmmm6mV6bmCmMMBBBBBBBBBBBBBB",
":zj::::::::::z::;;;;;;;;;;;;;;;;>222>hfffhO>2>OO66666Vmmmm6bmCVmBBBMBMMMBBBBBBBV",
"zj;:zz:::::::zz:;;;;;;;;:;;;;;;;222ff>hhOO>22f>>m6bVVmCmmCFCVmVVBBBBBBBBBMMBBBBB",
"zj;zjjj::::::zj:;;j;;;;;;;;;;;;;2ffff>OO>>22ff>2mVm6bbFFVmmmVm66BMMBBBBBVBBBBBBB",
"j;jj;;j::::::;j:;;;;;;;;;;;;;;;;ffffff>>222fff>f6bmVVFCmm666mVm6MBZZVBBBBBBBBBMM",
";:j;:::::j::::j:;;;;;;;;j;;;;;;;>hffff>22ffffhO>66bbCVm6mm666FmmBBBBBBBBBBBBBVVB",
"::::::::::j:::;:;;;;;;;j;;;;;:;;2>fffh>ffffffO>2mm66VmVm66bbb6CmBBBBBBBBBBBBBBBB",
"::::::::::j:::::j;;;;;;:;;;;;;;;ff>hhOO>ffffhO>26bbFmm66mV6bmVVCBBBBBMMMMMBBBBBB",
":::::::::::::::::;;;;;;;;;;;;;;;ff>OOO>>>hhhO>2fF6bCVm6bbbVmmm6VVBBMMBBBBBBBBBBV",
"::::::::::::::::;;;;;;;;;;;;j;;;fffO>2222>>>>2ffCFFCCCm6mmbb6mbCBBVZZBBBBBBZVBBB",
":::::::::::::::j;;;;;z;;;;;;;;;zffh>22fff22>2fffCm666mVmVC666bmmBBBBBBBBBVVBBBBB",
":::::z:::::::::j;;:;;j;;;;;;;;;jff>22ffffff>2fffV666bbCFCCFmmmCFMBBBBBBBBBBBBMMM",
":::::zj::zzz::::;;:;;;;;;;;;;;;:ff>2fffffff>2fffm6bb6CFV66mCFVVVMMBMBBMMMBBBBBBM",
":z:::;j:zjz:::::;;;;;;;;;;z;;;;;fh>fffffffff>fffbV6bCmmmV666mVVbBBVBBBBBBBBBBBBB",
"::::::;:jj;:::::;;;;j;;;;;;z;;;;hO>ffffffffhO2hhbmVVmm66mmbbbmFbBBBBVZVMBBVVMMBB"
};
