/* XPM */
static char *b8c59771bb56445cd136b9ca794f6f22BKkQ6eQyki6PY1sd[] = {
/* columns rows colors chars-per-pixel */
"64 64 7 1 ",
"  c #2D423A",
". c #42503A",
"X c #4D5D46",
"o c #517347",
"O c #0E993C",
"+ c #00C62D",
"@ c #629343",
/* pixels */
" .@oooooooo@@@@@. .@@@oo@oo@@@.  .@oooooooo@@@@@. .@@@oo@oo@@@. ",
"..XXXXXXXXXXXXXX. .XXXXXXXXXXX. ..XXXXXXXXXXXXXX. .XXXXXXXXXXX. ",
" .XXXXXXXXXXXXXX. .XXXXXXXXXXX.  .XXXXXXXXXXXXXX. .XXXXXXXXXXX. ",
" .XXXXXXXXXXXXXX. .XXXXXXXXXXX.  .XXXXXXXXXXXXXX. .XXXXXXXXXXX. ",
" .XXXXXXXXXXXXXX...XXXXXXXXXXX.  .XXXXXXXXXXXXXX...XXXXXXXXXXX. ",
" .XXXXXXXXXXXX... .XXXXXXXXXXX.  .XXXXXXXXXXXX... .XXXXXXXXXXX. ",
"  ............... .XXXXXXXXXXX.   ............... .XXXXXXXXXXX. ",
"                  .XXXXXXXXXXX.                   .XXXXXXXXXXX. ",
" .@@@oooo. .@oooo ..XXXXXXXXXX.  .@@@oooo. .@oooo ..XXXXXXXXXX. ",
" .ooooooo. .XXXXX@ ...........   .ooooooo. .XXXXX@ ...........  ",
" .XXXXXXX...XXXXXX@              .XXXXXXX...XXXXXX@             ",
" .XXXXXXX. .XXXXXXX@@ .ooooo@. O .XXXXXXX. .XXXXXXX@@ .ooooo@. O",
" .XXXXXXX. .XXXXXXXXX .XXXXXX. O .XXXXXXX. .XXXXXXXXX .XXXXXX. O",
" .XXXXXXX. .XXXXXXXXX..XXXXXX. O .XXXXXXX. .XXXXXXXXX..XXXXXX. O",
" .XXXXXXX. .XXXXXXXXX .XXXXXX. O .XXXXXXX. .XXXXXXXXX .XXXXXX. O",
" .XXXXXXX. .XXXXXXXXX .XXXXXX. O .XXXXXXX. .XXXXXXXXX .XXXXXX. O",
"..XXXXXX....XXXXXXXXX .XXXXXX. O..XXXXXX....XXXXXXXXX .XXXXXX. O",
" .XXXXXX.. .XXXXXXXXX .XXXXXX. O .XXXXXX.. .XXXXXXXXX .XXXXXX. O",
" ......... ..XXXXXXXX..XXXXX.. O ......... ..XXXXXXXX..XXXXX.. O",
" ........  ..XXXXXXXX .XXXX... O ........  ..XXXXXXXX .XXXX... O",
"            ..XXXXXXX ........ +            ..XXXXXXX ........ +",
" .oooo@@oo@. ..XXXXXXX           .oooo@@oo@. ..XXXXXXX          ",
" .XXXXXXXXX. .......... .@@ooo.  .XXXXXXXXX. .......... .@@ooo. ",
"..XXXXXXXXX.            .ooooo. ..XXXXXXXXX.            .ooooo. ",
" .XXXXXXXXX. .@ooooooo. .XXXXX.  .XXXXXXXXX. .@ooooooo. .XXXXX. ",
" .XXXXXXXXX. .XXXXXXXX. .XXXXX.  .XXXXXXXXX. .XXXXXXXX. .XXXXX. ",
" .XXXXXXXXX. .XXXXXXXX...XXXXX.  .XXXXXXXXX. .XXXXXXXX...XXXXX. ",
" .XXXXXXXXX...XXXXXXXX. .XXXXX.  .XXXXXXXXX...XXXXXXXX. .XXXXX. ",
"..XXXXXXXXX. .XXXXXXXX...XXXXX. ..XXXXXXXXX. .XXXXXXXX...XXXXX. ",
" ...XXXXXXX. ..XXXXXXX. .......  ...XXXXXXX. ..XXXXXXX. ....... ",
"  .........  ..........  ......   .........  ..........  ...... ",
"                                                                ",
" .@oooooooo@@@@@. .@@@oo@oo@@@.  .@oooooooo@@@@@. .@@@oo@oo@@@. ",
"..XXXXXXXXXXXXXX. .XXXXXXXXXXX. ..XXXXXXXXXXXXXX. .XXXXXXXXXXX. ",
" .XXXXXXXXXXXXXX. .XXXXXXXXXXX.  .XXXXXXXXXXXXXX. .XXXXXXXXXXX. ",
" .XXXXXXXXXXXXXX. .XXXXXXXXXXX.  .XXXXXXXXXXXXXX. .XXXXXXXXXXX. ",
" .XXXXXXXXXXXXXX...XXXXXXXXXXX.  .XXXXXXXXXXXXXX...XXXXXXXXXXX. ",
" .XXXXXXXXXXXX... .XXXXXXXXXXX.  .XXXXXXXXXXXX... .XXXXXXXXXXX. ",
"  ............... .XXXXXXXXXXX.   ............... .XXXXXXXXXXX. ",
"                  .XXXXXXXXXXX.                   .XXXXXXXXXXX. ",
" .@@@oooo. .@oooo ..XXXXXXXXXX.  .@@@oooo. .@oooo ..XXXXXXXXXX. ",
" .ooooooo. .XXXXX@ ...........   .ooooooo. .XXXXX@ ...........  ",
" .XXXXXXX...XXXXXX@              .XXXXXXX...XXXXXX@             ",
" .XXXXXXX. .XXXXXXX@@ .ooooo@. O .XXXXXXX. .XXXXXXX@@ .ooooo@. O",
" .XXXXXXX. .XXXXXXXXX .XXXXXX. O .XXXXXXX. .XXXXXXXXX .XXXXXX. O",
" .XXXXXXX. .XXXXXXXXX..XXXXXX. O .XXXXXXX. .XXXXXXXXX..XXXXXX. O",
" .XXXXXXX. .XXXXXXXXX .XXXXXX. O .XXXXXXX. .XXXXXXXXX .XXXXXX. O",
" .XXXXXXX. .XXXXXXXXX .XXXXXX. O .XXXXXXX. .XXXXXXXXX .XXXXXX. O",
"..XXXXXX....XXXXXXXXX .XXXXXX. O..XXXXXX....XXXXXXXXX .XXXXXX. O",
" .XXXXXX.. .XXXXXXXXX .XXXXXX. O .XXXXXX.. .XXXXXXXXX .XXXXXX. O",
" ......... ..XXXXXXXX..XXXXX.. O ......... ..XXXXXXXX..XXXXX.. O",
" ........  ..XXXXXXXX .XXXX... O ........  ..XXXXXXXX .XXXX... O",
"            ..XXXXXXX ........ +            ..XXXXXXX ........ +",
" .oooo@@oo@. ..XXXXXXX           .oooo@@oo@. ..XXXXXXX          ",
" .XXXXXXXXX. .......... .@@ooo.  .XXXXXXXXX. .......... .@@ooo. ",
"..XXXXXXXXX.            .ooooo. ..XXXXXXXXX.            .ooooo. ",
" .XXXXXXXXX. .@ooooooo. .XXXXX.  .XXXXXXXXX. .@ooooooo. .XXXXX. ",
" .XXXXXXXXX. .XXXXXXXX. .XXXXX.  .XXXXXXXXX. .XXXXXXXX. .XXXXX. ",
" .XXXXXXXXX. .XXXXXXXX...XXXXX.  .XXXXXXXXX. .XXXXXXXX...XXXXX. ",
" .XXXXXXXXX...XXXXXXXX. .XXXXX.  .XXXXXXXXX...XXXXXXXX. .XXXXX. ",
"..XXXXXXXXX. .XXXXXXXX...XXXXX. ..XXXXXXXXX. .XXXXXXXX...XXXXX. ",
" ...XXXXXXX. ..XXXXXXX. .......  ...XXXXXXX. ..XXXXXXX. ....... ",
"  .........  ..........  ......   .........  ..........  ...... ",
"                                                                "
};
